HIERARCHY
ROOT Pelvis
{
	OFFSET 0.000000 0.000000 0.000000
	CHANNELS 6 Xposition Yposition Zposition Xrotation Yrotation Zrotation
	JOINT LeftUpLeg_virtual
	{
		OFFSET 0.000000 0.000000 0.000000
		CHANNELS 3 Xrotation Yrotation Zrotation
		JOINT LeftUpLeg
		{
			OFFSET 18.735201 -5.666702 -4.541200
			CHANNELS 3 Xrotation Yrotation Zrotation
			JOINT LeftLeg
			{
				OFFSET -0.021200 -31.938179 0.493100
				CHANNELS 3 Xrotation Yrotation Zrotation
				JOINT LeftFoot
				{
					OFFSET 0.021200 -31.938179 -4.336299
					CHANNELS 3 Xrotation Yrotation Zrotation
					JOINT LeftToeBase
					{
						OFFSET 0.943001 -26.722000 15.023500
						CHANNELS 3 Xrotation Yrotation Zrotation
						End Site
						{
							OFFSET 0 0 0
						}
					}
				}
			}
		}
	}
	JOINT RightUpLeg_virtual
	{
		OFFSET 0.000000 0.000000 0.000000
		CHANNELS 3 Xrotation Yrotation Zrotation
		JOINT RightUpLeg
		{
			OFFSET -18.735201 -5.666702 -4.541200
			CHANNELS 3 Xrotation Yrotation Zrotation
			JOINT RightLeg
			{
				OFFSET 0.018946 -31.938133 0.493100
				CHANNELS 3 Xrotation Yrotation Zrotation
				JOINT RightFoot
				{
					OFFSET -0.018946 -31.938126 -4.336299
					CHANNELS 3 Xrotation Yrotation Zrotation
					JOINT RightToeBase
					{
						OFFSET -0.943001 -26.722004 15.023500
						CHANNELS 3 Xrotation Yrotation Zrotation
						End Site
						{
							OFFSET 0 0 0
						}
					}
				}
			}
		}
	}
	JOINT Hips_virtual
	{
		OFFSET 0.000000 0.000000 0.000000
		CHANNELS 3 Xrotation Yrotation Zrotation
		JOINT Hips
		{
			OFFSET -0.000000 -0.000000 -0.000000
			CHANNELS 3 Xrotation Yrotation Zrotation
			JOINT Spine
			{
				OFFSET 0.000000 10.199997 -0.299500
				CHANNELS 3 Xrotation Yrotation Zrotation
				JOINT Spine1
				{
					OFFSET 0.000000 11.900002 -1.516600
					CHANNELS 3 Xrotation Yrotation Zrotation
					JOINT Spine2
					{
						OFFSET 0.000000 13.600006 -2.842500
						CHANNELS 3 Xrotation Yrotation Zrotation
						JOINT Neck_virtual
						{
							OFFSET 0.000000 0.000000 0.000000
							CHANNELS 3 Xrotation Yrotation Zrotation
							JOINT Neck
							{
								OFFSET 0.000000 9.624100 -2.890100
								CHANNELS 3 Xrotation Yrotation Zrotation
								JOINT Head
								{
									OFFSET 0.000000 14.068802 -1.351900
									CHANNELS 3 Xrotation Yrotation Zrotation
									End Site
									{
										OFFSET 0 0 0
									}
								}
							}
						}
						JOINT LeftShoulder_virtual
						{
							OFFSET 0.000000 0.000000 0.000000
							CHANNELS 3 Xrotation Yrotation Zrotation
							JOINT LeftShoulder
							{
								OFFSET 15.263000 10.923401 -0.547700
								CHANNELS 3 Xrotation Yrotation Zrotation
								JOINT LeftArm
								{
									OFFSET 25.438599 -2.830597 -13.032500
									CHANNELS 3 Xrotation Yrotation Zrotation
									JOINT LeftForeArm
									{
										OFFSET 29.960503 0.000000 0.000000
										CHANNELS 3 Xrotation Yrotation Zrotation
										JOINT LeftHand
										{
											OFFSET 27.849251 0.000000 0.000000
											CHANNELS 3 Xrotation Yrotation Zrotation
											End Site
											{
												OFFSET 0 0 0
											}
										}
									}
								}
							}
						}
						JOINT RightShoulder_virtual
						{
							OFFSET 0.000000 0.000000 0.000000
							CHANNELS 3 Xrotation Yrotation Zrotation
							JOINT RightShoulder
							{
								OFFSET -15.263000 10.923401 -0.547700
								CHANNELS 3 Xrotation Yrotation Zrotation
								JOINT RightArm
								{
									OFFSET -25.438599 -2.830597 -13.032500
									CHANNELS 3 Xrotation Yrotation Zrotation
									JOINT RightForeArm
									{
										OFFSET -29.960503 0.000000 0.000000
										CHANNELS 3 Xrotation Yrotation Zrotation
										JOINT RightHand
										{
											OFFSET -27.849251 0.000000 0.000000
											CHANNELS 3 Xrotation Yrotation Zrotation
											End Site
											{
												OFFSET 0 0 0
											}
										}
									}
								}
							}
						}
					}
				}
			}
		}
	}
}
MOTION
Frames: 4
Frame Time: 0.03333333
-1.894331 81.562843 27.534830 0.000000 0.000000 0.000000 11.049075 -40.269436 -1.086207 -27.849642 2.833157 9.894324 45.595549 -4.224540 1.727307 -11.089797 -4.208351 -6.573941 0.000000 0.000000 0.000000 -9.646711 -30.961422 1.152755 -47.991870 -10.430558 -16.382878 48.314057 8.987305 0.215680 -6.269103 5.886179 18.306019 0.000000 0.000000 0.000000 -8.379525 -45.637012 -2.144937 12.010797 -2.611877 -8.111110 12.853816 -9.422958 4.865752 5.163722 -4.752143 2.746196 0.000000 0.000000 0.000000 -2.598589 -0.524384 0.935468 -0.857477 4.528134 -1.146961 0.000000 0.000000 0.000000 1.892673 -5.268250 1.741962 -1.678540 -6.755106 1.450537 -16.267071 1.119172 -34.050556 6.567790 -11.600735 -9.048117 0.000000 0.000000 0.000000 1.167950 -5.436594 3.503098 4.572473 -8.123451 5.065630 7.641968 -28.381039 65.034944 -19.211181 59.407694 26.431478 0.000000 0.000000 0.000000 
-1.108671 82.247459 26.416033 0.000000 0.000000 0.000000 11.133936 -40.245851 -1.422755 -27.401691 2.935682 9.419219 42.467067 -4.275490 2.295749 -13.592888 -4.349338 -5.746303 0.000000 0.000000 0.000000 -9.204470 -33.139429 1.282626 -47.600722 -11.128900 -16.412308 47.792049 8.580843 0.351819 -6.584905 5.375241 18.145924 0.000000 0.000000 0.000000 -8.374227 -46.079257 -2.165603 12.416885 -2.967011 -8.015189 12.340656 -9.185880 4.565570 4.892448 -4.611310 2.580923 0.000000 0.000000 0.000000 -2.879108 -0.337698 0.855667 -0.989553 4.646819 -1.172901 0.000000 0.000000 0.000000 1.456194 -5.106352 1.570625 -1.914032 -6.269932 1.241744 -17.217558 0.078410 -33.686595 6.243860 -13.079153 -8.825982 0.000000 0.000000 0.000000 0.966735 -5.255343 3.408416 4.531814 -7.638052 4.942245 9.231877 -26.465043 65.550869 -18.577771 60.497294 26.588118 0.000000 0.000000 0.000000 
-0.367908 82.841553 25.332777 0.000000 0.000000 0.000000 11.221554 -40.082473 -1.671980 -26.982042 3.039522 9.057222 39.561856 -4.353803 2.709793 -15.828910 -4.458218 -5.148987 0.000000 0.000000 0.000000 -8.861615 -34.706718 1.384947 -47.298804 -11.636919 -16.440337 47.790731 8.232452 0.394864 -6.479999 5.031033 17.944188 0.000000 0.000000 0.000000 -8.314026 -46.409144 -2.140770 12.890238 -3.221916 -7.836583 11.876322 -8.942211 4.295662 4.642907 -4.465680 2.433989 0.000000 0.000000 0.000000 -3.134827 -0.152036 0.788261 -1.115194 4.759323 -1.192060 0.000000 0.000000 0.000000 1.046325 -4.935694 1.430410 -2.127022 -5.785693 1.127875 -18.075618 -0.947567 -33.379654 5.943939 -14.540983 -8.613843 0.000000 0.000000 0.000000 0.800463 -5.064237 3.333292 4.510613 -7.131978 4.905650 10.923329 -24.441081 66.005924 -17.747116 61.528899 26.570734 0.000000 0.000000 0.000000 
0.325123 83.369804 24.285400 0.000000 0.000000 0.000000 11.319053 -39.855045 -1.843009 -26.585897 3.133335 8.786965 36.951221 -4.433889 2.973340 -17.753922 -4.520476 -4.755324 0.000000 0.000000 0.000000 -8.601299 -35.762000 1.442185 -47.061950 -11.977462 -16.482420 48.209470 7.913682 0.340249 -6.021982 4.818543 17.654869 0.000000 0.000000 0.000000 -8.223834 -46.640240 -2.086988 13.375163 -3.402976 -7.603793 11.467246 -8.693636 4.052364 4.418285 -4.316157 2.303400 0.000000 0.000000 0.000000 -3.337736 0.036990 0.726346 -1.220727 4.868193 -1.209020 0.000000 0.000000 0.000000 0.672726 -4.756932 1.314439 -2.313814 -5.302254 1.078908 -18.828504 -1.967856 -33.153318 5.671210 -16.000128 -8.420279 0.000000 0.000000 0.000000 0.666287 -4.863267 3.269537 4.501411 -6.605377 4.917434 12.609039 -22.395307 66.329183 -16.760330 62.487871 26.367218 0.000000 0.000000 0.000000 
